<?xml version="1.0" encoding="UTF-8" standalone="no"?>
<!-- Generator: Adobe Illustrator 19.0.0, SVG Export Plug-In . SVG Version: 6.00 Build 0)  -->

<svg
   version="1.1"
   id="Layer_2"
   x="0px"
   y="0px"
   viewBox="0 0 2904.3 2051.6"
   style="enable-background:new 0 0 2904.3 2051.6;"
   xml:space="preserve"
   sodipodi:docname="logo_bliss_white.svg"
   inkscape:version="1.1 (c68e22c387, 2021-05-23)"
   xmlns:inkscape="http://www.inkscape.org/namespaces/inkscape"
   xmlns:sodipodi="http://sodipodi.sourceforge.net/DTD/sodipodi-0.dtd"
   xmlns="http://www.w3.org/2000/svg"
   xmlns:svg="http://www.w3.org/2000/svg"><defs
   id="defs61" /><sodipodi:namedview
   id="namedview59"
   pagecolor="#ffffff"
   bordercolor="#111111"
   borderopacity="1"
   inkscape:pageshadow="0"
   inkscape:pageopacity="0"
   inkscape:pagecheckerboard="1"
   showgrid="false"
   inkscape:zoom="0.42552152"
   inkscape:cx="1451.1604"
   inkscape:cy="1025.8"
   inkscape:window-width="2560"
   inkscape:window-height="1351"
   inkscape:window-x="-9"
   inkscape:window-y="-9"
   inkscape:window-maximized="1"
   inkscape:current-layer="Layer_2" />
<g
   id="g56"
   style="fill:#ffffff">
	<g
   id="g42"
   style="fill:#ffffff">
		<path
   d="M2653.7,1822h-293.3v-29.2c0-10.2-7.9-18.6-18-19.4v-730c10.8-1.2,19.2-10.4,19.2-21.5V902.8h30.4c0,0,0,0,0.1,0    c0.5,0,1,0,1.5-0.1c0.1,0,0.2,0,0.3,0c0.4-0.1,0.9-0.1,1.3-0.2c0.1,0,0.3-0.1,0.4-0.1c0.3-0.1,0.7-0.2,1-0.3    c0.1,0,0.3-0.1,0.4-0.1c0.4-0.1,0.8-0.3,1.2-0.4c0.1-0.1,0.3-0.1,0.4-0.2c0.4-0.2,0.7-0.3,1.1-0.5c0,0,0.1,0,0.1-0.1    c0.4-0.2,0.8-0.5,1.2-0.7c0.1,0,0.1-0.1,0.2-0.1c0.8-0.5,1.5-1.1,2.2-1.8c0,0,0.1-0.1,0.1-0.1c0.3-0.3,0.6-0.7,0.9-1    c0,0,0,0,0-0.1c0.3-0.3,0.6-0.7,0.8-1.1c0.1-0.1,0.2-0.2,0.2-0.4c0.1-0.1,0.2-0.2,0.2-0.4l39-63.5c0.1-0.1,0.1-0.2,0.2-0.3    c0.2-0.3,0.3-0.6,0.5-0.8c0.1-0.2,0.2-0.4,0.3-0.6c0.1-0.3,0.2-0.6,0.4-0.8c0.1-0.2,0.2-0.4,0.2-0.7c0.1-0.3,0.2-0.5,0.2-0.8    c0.1-0.3,0.1-0.5,0.2-0.8c0.1-0.2,0.1-0.5,0.1-0.7c0.1-0.3,0.1-0.6,0.1-0.9c0-0.2,0-0.4,0.1-0.6c0-0.3,0-0.6,0-1    c0-0.1,0-0.2,0-0.4c0-0.1,0-0.2,0-0.3c0-0.3,0-0.6,0-0.9c0-0.2,0-0.5-0.1-0.7c0-0.3-0.1-0.5-0.1-0.8c0-0.3-0.1-0.6-0.2-0.8    c0-0.2-0.1-0.4-0.2-0.6c-0.1-0.3-0.2-0.6-0.3-0.9c-0.1-0.2-0.1-0.4-0.2-0.6c-0.1-0.3-0.2-0.6-0.3-0.8c-0.1-0.2-0.2-0.4-0.3-0.6    c-0.1-0.2-0.2-0.5-0.4-0.7c-0.1-0.2-0.3-0.5-0.4-0.7c-0.1-0.2-0.2-0.4-0.4-0.6c-0.2-0.3-0.4-0.5-0.5-0.7c-0.1-0.2-0.3-0.3-0.4-0.5    c-0.2-0.2-0.4-0.5-0.6-0.7c-0.1-0.2-0.3-0.3-0.4-0.5c-0.2-0.2-0.4-0.4-0.6-0.6c-0.2-0.2-0.4-0.3-0.6-0.5c-0.2-0.2-0.4-0.3-0.6-0.4    c-0.2-0.2-0.5-0.4-0.7-0.5c-0.1-0.1-0.2-0.1-0.2-0.2c-0.1-0.1-0.2-0.1-0.3-0.2c-0.3-0.2-0.6-0.3-0.8-0.5c-0.2-0.1-0.4-0.2-0.6-0.3    c-0.3-0.1-0.6-0.2-0.8-0.4c-0.2-0.1-0.4-0.2-0.7-0.2c-0.3-0.1-0.5-0.2-0.8-0.2c-0.3-0.1-0.5-0.1-0.8-0.2c-0.2-0.1-0.5-0.1-0.7-0.1    c-0.3-0.1-0.6-0.1-0.9-0.1c-0.2,0-0.4-0.1-0.7-0.1c-0.3,0-0.6,0-0.9,0c-0.1,0-0.2,0-0.4,0h-117.4V700.8h51.1    c10.6,0,19.3-8.6,19.3-19.3v-39.3c0-10.6-8.6-19.3-19.3-19.3h-646.4v-12.3c0-9.6-7.8-17.3-17.3-17.3h-41.8V373c0-8.3-6.7-15-15-15    s-15,6.7-15,15v21.8h-11.8V373c0-8.3-6.7-15-15-15s-15,6.7-15,15v32.2l-36.1,53.2V373c0-8.3-6.7-15-15-15s-15,6.7-15,15v21.8    h-11.8V373c0-8.3-6.7-15-15-15s-15,6.7-15,15v32.2l-20.1,29.6v-94c17-6.2,29.1-22.4,29.1-41.5c0-10.5-3.7-20.1-9.8-27.7l27.7-41.4    c4.9-7.3,2.9-17.3-4.4-22.2c-7.4-4.9-17.3-2.9-22.2,4.4l-20.4,30.5v-30.3c0-8.3-6.7-15-15-15s-15,6.7-15,15v30.3l-20.4-30.5    c-4.9-7.3-14.8-9.3-22.2-4.4c-7.3,4.9-9.3,14.8-4.4,22.2l27.7,41.4c-6.1,7.6-9.8,17.2-9.8,27.7c0,19.1,12.2,35.3,29.1,41.5v94    l-20.1-29.6V373c0-8.3-6.7-15-15-15s-15,6.7-15,15v21.8h-11.8V373c0-8.3-6.7-15-15-15s-15,6.7-15,15v85.5l-36.1-53.2V373    c0-8.3-6.7-15-15-15s-15,6.7-15,15v21.8h-11.8V373c0-8.3-6.7-15-15-15s-15,6.7-15,15v220.3h-41.8c-9.6,0-17.3,7.8-17.3,17.3V623    H523.9c-10.6,0-19.3,8.6-19.3,19.3v39.3c0,10.6,8.6,19.3,19.3,19.3H575v106.5H457.6c-0.1,0-0.2,0-0.4,0c-0.3,0-0.6,0-0.9,0    c-0.2,0-0.4,0-0.7,0.1c-0.3,0-0.6,0.1-0.9,0.1c-0.2,0-0.5,0.1-0.7,0.1c-0.3,0.1-0.5,0.1-0.8,0.2c-0.3,0.1-0.5,0.2-0.8,0.2    c-0.2,0.1-0.4,0.2-0.7,0.2c-0.3,0.1-0.6,0.2-0.8,0.4c-0.2,0.1-0.4,0.2-0.6,0.3c-0.3,0.1-0.6,0.3-0.9,0.5c-0.1,0.1-0.2,0.1-0.3,0.2    c-0.1,0.1-0.2,0.1-0.2,0.2c-0.3,0.2-0.5,0.3-0.8,0.5c-0.2,0.1-0.4,0.3-0.6,0.4c-0.2,0.2-0.4,0.3-0.6,0.5c-0.2,0.2-0.4,0.4-0.6,0.6    c-0.2,0.2-0.3,0.3-0.5,0.5c-0.2,0.2-0.4,0.4-0.6,0.7c-0.1,0.2-0.3,0.3-0.4,0.5c-0.2,0.2-0.4,0.5-0.5,0.7c-0.1,0.2-0.3,0.4-0.4,0.6    c-0.1,0.2-0.3,0.5-0.4,0.7c-0.1,0.2-0.3,0.5-0.4,0.7c-0.1,0.2-0.2,0.4-0.3,0.6c-0.1,0.3-0.2,0.6-0.3,0.8c-0.1,0.2-0.1,0.4-0.2,0.6    c-0.1,0.3-0.2,0.6-0.3,0.9c-0.1,0.2-0.1,0.4-0.2,0.6c-0.1,0.3-0.1,0.6-0.2,0.8c0,0.3-0.1,0.5-0.1,0.8c0,0.2,0,0.5-0.1,0.7    c0,0.3,0,0.6,0,0.9c0,0.1,0,0.2,0,0.3c0,0.1,0,0.2,0,0.4c0,0.3,0,0.6,0,1c0,0.2,0,0.4,0.1,0.7c0,0.3,0.1,0.6,0.1,0.9    c0,0.2,0.1,0.5,0.1,0.7c0.1,0.3,0.1,0.5,0.2,0.8c0.1,0.3,0.2,0.5,0.2,0.8c0.1,0.2,0.2,0.4,0.2,0.7c0.1,0.3,0.2,0.6,0.4,0.8    c0.1,0.2,0.2,0.4,0.3,0.6c0.1,0.3,0.3,0.6,0.5,0.8c0.1,0.1,0.1,0.2,0.2,0.3l39,63.5c0.1,0.1,0.2,0.2,0.2,0.4    c0.1,0.1,0.2,0.2,0.2,0.3c0.3,0.4,0.5,0.7,0.8,1.1c0,0,0,0,0,0c0.3,0.4,0.6,0.7,0.9,1c0,0,0.1,0.1,0.1,0.1    c0.7,0.7,1.4,1.3,2.2,1.8c0.1,0,0.1,0.1,0.2,0.1c0.4,0.3,0.8,0.5,1.2,0.7c0,0,0.1,0,0.1,0.1c0.4,0.2,0.7,0.4,1.1,0.5    c0.1,0.1,0.3,0.1,0.4,0.2c0.4,0.2,0.8,0.3,1.2,0.4c0.1,0,0.3,0.1,0.4,0.1c0.3,0.1,0.7,0.2,1,0.3c0.1,0,0.3,0.1,0.4,0.1    c0.4,0.1,0.9,0.2,1.3,0.2c0.1,0,0.2,0,0.3,0c0.5,0,1,0.1,1.5,0.1c0,0,0,0,0.1,0h30.4v119.1c0,11.1,8.4,20.3,19.2,21.5v730    c-10,0.8-18,9.2-18,19.4v29.2H235c-8.8,0-16,7.2-16,16s7.2,16,16,16h312.8h143h111c8.8,0,16-7.2,16-16s-7.2-16-16-16h-91.5v-29.2    c0-10.2-7.9-18.6-18-19.4v-729.8h1503.9v729.8c-10,0.8-18,9.2-18,19.4v29.2h-315.5c-8.8,0-16,7.2-16,16s7.2,16,16,16h335h143    h312.8c8.8,0,16-7.2,16-16S2662.5,1822,2653.7,1822z M1718.3,653H2354v17.8h-635.7V653z M1551.2,511.9l59-87.1h18.9v168.5h-24    v-41.7c0-8.3-6.7-15-15-15s-15,6.7-15,15v41.7h-24V511.9z M1459.3,488.3l43-63.5h18.9v82.4c0,0,0,0,0,0.1v86h-15.1v-41.7    c0-8.3-6.7-15-15-15s-15,6.7-15,15v41.7h-16.8V488.3z M1444.3,287.2c6.7,0,12.1,5.4,12.1,12.1s-5.4,12.1-12.1,12.1    s-12.1-5.4-12.1-12.1S1437.6,287.2,1444.3,287.2z M1367.4,507.3C1367.4,507.3,1367.4,507.2,1367.4,507.3v-82.5h18.9l43,63.5v105    h-16.8v-41.7c0-8.3-6.7-15-15-15s-15,6.7-15,15v41.7h-15.1V507.3z M1259.5,424.8h18.9l59,87.1v81.4h-24v-41.7c0-8.3-6.7-15-15-15    s-15,6.7-15,15v41.7h-24V424.8z M1200.3,623.3h488v144h-488V623.3z M1187.7,797.3H1701c9.6,0,17.3-7.8,17.3-17.3v-27.3h514    c8.3,0,15-6.7,15-15s-6.7-15-15-15h-514v-21.8h565.3v106.5h-839.3H605V700.8h565.3v21.8h-514c-8.3,0-15,6.7-15,15s6.7,15,15,15    h514V780C1170.3,789.5,1178.1,797.3,1187.7,797.3z M534.7,670.8V653h635.7v17.8H534.7z M678.3,1822h-118v-16.7h118V1822z     M578.3,1773.3v-729.8h82.1v729.8H578.3z M2328.3,1822h-118v-16.7h118V1822z M2228.3,1773.3v-729.8h82.1v729.8H2228.3z     M2329.6,1011.5H559.1V902.8h885.2h885.3V1011.5z M1444.3,870.8H505.5l-19.3-31.5h958.1h958.1l-19.3,31.5H1444.3z"
   id="path2"
   style="fill:#ffffff" />
		<path
   d="M1482.3,1003.8c8.3,0,15-6.7,15-15v-59.1c0-8.3-6.7-15-15-15s-15,6.7-15,15v59.1C1467.3,997.1,1474,1003.8,1482.3,1003.8z    "
   id="path4"
   style="fill:#ffffff" />
		<path
   d="M1576,1003.8c8.3,0,15-6.7,15-15v-59.1c0-8.3-6.7-15-15-15s-15,6.7-15,15v59.1C1561,997.1,1567.7,1003.8,1576,1003.8z"
   id="path6"
   style="fill:#ffffff" />
		<path
   d="M1669.7,1003.8c8.3,0,15-6.7,15-15v-59.1c0-8.3-6.7-15-15-15s-15,6.7-15,15v59.1    C1654.7,997.1,1661.4,1003.8,1669.7,1003.8z"
   id="path8"
   style="fill:#ffffff" />
		<path
   d="M1763.3,1003.8c8.3,0,15-6.7,15-15v-59.1c0-8.3-6.7-15-15-15s-15,6.7-15,15v59.1C1748.3,997.1,1755,1003.8,1763.3,1003.8z    "
   id="path10"
   style="fill:#ffffff" />
		<path
   d="M1857,1003.8c8.3,0,15-6.7,15-15v-59.1c0-8.3-6.7-15-15-15s-15,6.7-15,15v59.1C1842,997.1,1848.7,1003.8,1857,1003.8z"
   id="path12"
   style="fill:#ffffff" />
		<path
   d="M1950.7,1003.8c8.3,0,15-6.7,15-15v-59.1c0-8.3-6.7-15-15-15s-15,6.7-15,15v59.1    C1935.7,997.1,1942.4,1003.8,1950.7,1003.8z"
   id="path14"
   style="fill:#ffffff" />
		<path
   d="M2044.3,1003.8c8.3,0,15-6.7,15-15v-59.1c0-8.3-6.7-15-15-15s-15,6.7-15,15v59.1C2029.3,997.1,2036,1003.8,2044.3,1003.8z    "
   id="path16"
   style="fill:#ffffff" />
		<path
   d="M2138,1003.8c8.3,0,15-6.7,15-15v-59.1c0-8.3-6.7-15-15-15s-15,6.7-15,15v59.1C2123,997.1,2129.7,1003.8,2138,1003.8z"
   id="path18"
   style="fill:#ffffff" />
		<path
   d="M2231.7,1003.8c8.3,0,15-6.7,15-15v-59.1c0-8.3-6.7-15-15-15s-15,6.7-15,15v59.1    C2216.7,997.1,2223.4,1003.8,2231.7,1003.8z"
   id="path20"
   style="fill:#ffffff" />
		<path
   d="M1763,1823h-318.7h-563c-8.3,0-15,6.7-15,15s6.7,15,15,15h563H1763c8.3,0,15-6.7,15-15S1771.3,1823,1763,1823z"
   id="path22"
   style="fill:#ffffff" />
		<path
   d="M1391.7,914.7c-8.3,0-15,6.7-15,15v59.1c0,8.3,6.7,15,15,15s15-6.7,15-15v-59.1C1406.7,921.4,1399.9,914.7,1391.7,914.7z"
   id="path24"
   style="fill:#ffffff" />
		<path
   d="M1298,914.7c-8.3,0-15,6.7-15,15v59.1c0,8.3,6.7,15,15,15s15-6.7,15-15v-59.1C1313,921.4,1306.3,914.7,1298,914.7z"
   id="path26"
   style="fill:#ffffff" />
		<path
   d="M1204.3,914.7c-8.3,0-15,6.7-15,15v59.1c0,8.3,6.7,15,15,15s15-6.7,15-15v-59.1C1219.3,921.4,1212.6,914.7,1204.3,914.7z"
   id="path28"
   style="fill:#ffffff" />
		<path
   d="M1110.7,914.7c-8.3,0-15,6.7-15,15v59.1c0,8.3,6.7,15,15,15s15-6.7,15-15v-59.1C1125.7,921.4,1118.9,914.7,1110.7,914.7z"
   id="path30"
   style="fill:#ffffff" />
		<path
   d="M1017,914.7c-8.3,0-15,6.7-15,15v59.1c0,8.3,6.7,15,15,15c8.3,0,15-6.7,15-15v-59.1C1032,921.4,1025.3,914.7,1017,914.7z"
   id="path32"
   style="fill:#ffffff" />
		<path
   d="M923.3,914.7c-8.3,0-15,6.7-15,15v59.1c0,8.3,6.7,15,15,15s15-6.7,15-15v-59.1C938.3,921.4,931.6,914.7,923.3,914.7z"
   id="path34"
   style="fill:#ffffff" />
		<path
   d="M829.7,914.7c-8.3,0-15,6.7-15,15v59.1c0,8.3,6.7,15,15,15s15-6.7,15-15v-59.1C844.7,921.4,837.9,914.7,829.7,914.7z"
   id="path36"
   style="fill:#ffffff" />
		<path
   d="M736,914.7c-8.3,0-15,6.7-15,15v59.1c0,8.3,6.7,15,15,15s15-6.7,15-15v-59.1C751,921.4,744.3,914.7,736,914.7z"
   id="path38"
   style="fill:#ffffff" />
		<path
   d="M642.3,914.7c-8.3,0-15,6.7-15,15v59.1c0,8.3,6.7,15,15,15s15-6.7,15-15v-59.1C657.3,921.4,650.6,914.7,642.3,914.7z"
   id="path40"
   style="fill:#ffffff" />
	</g>
	<g
   id="g54"
   style="fill:#ffffff">
		<path
   d="M818.4,1097c68.6,0,111.7,8.8,146.8,41.5c28.7,27.1,42.3,61.4,42.3,105.3c0,20.7-3.2,42.3-16,63    c-12,20.7-27.9,31.1-39.9,36.7c9.6,2.4,42.3,11.2,68.6,38.3c28.7,30.3,35.1,67,35.1,99.8c0,38.3-9.6,68.6-35.1,95.8    c-42.3,44.7-108.5,51.9-149.2,51.9H737.8V1097H818.4z M819.2,1326h24.7c19.9,0,47.1-2.4,66.2-20.7c18.4-17.6,20.7-42.3,20.7-60.6    c0-16-2.4-35.1-19.2-51.1c-18.4-17.6-41.5-20-64.6-20h-27.9V1326z M819.2,1552.6h49.5c23.1,0,59.9-4,80.6-20.7    c16-12.8,26.3-35.1,26.3-59.1c0-21.5-8-42.3-21.5-55.9c-22.3-21.5-55.1-23.9-83.8-23.9h-51.1V1552.6z"
   id="path44"
   style="fill:#ffffff" />
		<path
   d="M1158.6,1097v455.7H1315v76.6h-237.8V1097H1158.6z"
   id="path46"
   style="fill:#ffffff" />
		<path
   d="M1416,1097v532.3h-81.4V1097H1416z"
   id="path48"
   style="fill:#ffffff" />
		<path
   d="M1704.2,1215.1c-4.8-12-12-23.1-23.9-33.5c-16.8-13.6-34.3-19.2-57.5-19.2c-49.5,0-75,29.5-75,63.8    c0,16,5.6,43.9,57.5,64.6l53.5,21.5c98.2,39.9,125.3,95.8,125.3,156.4c0,101.3-71.8,170.8-171.6,170.8    c-61.4,0-98.2-23.1-125.3-53.5c-28.7-31.9-41.5-67-44.7-103.7l80.6-17.6c0,26.3,9.6,51.1,22.3,67.8c15.2,19.2,37.5,31.9,69.4,31.9    c49.5,0,87.8-35.9,87.8-89.4c0-54.3-41.5-76.6-76.6-91l-51.1-21.5c-43.9-18.4-108.5-55.1-108.5-134.9    c0-71.8,55.9-140.4,155.6-140.4c57.5,0,90.2,21.5,106.9,35.9c14.4,12.8,29.5,31.1,40.7,53.5L1704.2,1215.1z"
   id="path50"
   style="fill:#ffffff" />
		<path
   d="M2063.2,1215.1c-4.8-12-12-23.1-23.9-33.5c-16.8-13.6-34.3-19.2-57.5-19.2c-49.5,0-75,29.5-75,63.8    c0,16,5.6,43.9,57.5,64.6l53.5,21.5c98.2,39.9,125.3,95.8,125.3,156.4c0,101.3-71.8,170.8-171.6,170.8    c-61.4,0-98.2-23.1-125.3-53.5c-28.7-31.9-41.5-67-44.7-103.7l80.6-17.6c0,26.3,9.6,51.1,22.3,67.8c15.2,19.2,37.5,31.9,69.4,31.9    c49.5,0,87.8-35.9,87.8-89.4c0-54.3-41.5-76.6-76.6-91l-51.1-21.5c-43.9-18.4-108.5-55.1-108.5-134.9    c0-71.8,55.9-140.4,155.6-140.4c57.5,0,90.2,21.5,106.9,35.9c14.4,12.8,29.5,31.1,40.7,53.5L2063.2,1215.1z"
   id="path52"
   style="fill:#ffffff" />
	</g>
</g>
</svg>
